# xmcd
#
# Track frame offsets:
#  150
#  16976
#  29767
#  41886
#  57363
#  72457
#  88810
#  109681
#  123613
#  137399
#  156696
#  173628
#  222044
#
# Disc length: 3129 seconds
#
# Revision: 1
# Processed by: cddbd v1.5.1PL2 Copyright (c) Steve Scherf et al.
# Submitted via: Collectorz.com_Music_Collector 6.9
#
DISCID=c00c370d
DTITLE=Highwaymen - The Greek Theatre, La - 4 June 1996 - Disc 2
DYEAR=1996
DGENRE=Alt. Country
TTITLE0=Bird On A Wire
TTITLE1=Here Comes The Rainbow
TTITLE2=An End To Understanding
TTITLE3=Ghost Riders
TTITLE4=Orange Blossom Special
TTITLE5=Between Heaven and Hell
TTITLE6=Night Life
TTITLE7=Good Hearted Woman/Mams Don't Let Your Babies Grow Up To Be Co
TTITLE8=Chase The Feeling
TTITLE9=Desperados
TTITLE10=Always On My Mind
TTITLE11=Big River/I Do Believe/Death and Hell
TTITLE12=Why Me Lord
EXTD=
EXTT0=
EXTT1=
EXTT2=
EXTT3=
EXTT4=
EXTT5=
EXTT6=
EXTT7=
EXTT8=
EXTT9=
EXTT10=
EXTT11=
EXTT12=
PLAYORDER=
